<?xml version="1.0" encoding="UTF-8"?><svg id="Layer_2" xmlns="http://www.w3.org/2000/svg" xmlns:xlink="http://www.w3.org/1999/xlink" viewBox="0 0 849.418 268"><defs><clipPath id="clippath"><rect width="268" height="268" style="fill:none;"/></clipPath><linearGradient id="linear-gradient" x1="172.6084" y1="279.2814" x2="90.8079" y2="-5.9689" gradientTransform="translate(0 270.0008) scale(1 -1)" gradientUnits="userSpaceOnUse"><stop offset="0" stop-color="#fff"/><stop offset=".13" stop-color="#fff"/><stop offset=".14" stop-color="#f1f1f1"/><stop offset=".3" stop-color="#717171"/><stop offset=".41" stop-color="#1f1f1f"/><stop offset=".46" stop-color="#000"/><stop offset="1" stop-color="#000"/></linearGradient><linearGradient id="linear-gradient-2" x1="185.7899" y1="285.0504" x2="163.7299" y2="224.4504" gradientTransform="translate(0 270.0008) scale(1 -1)" gradientUnits="userSpaceOnUse"><stop offset=".76" stop-color="#1f82ff"/><stop offset="1" stop-color="#1f5dff"/></linearGradient><linearGradient id="linear-gradient-3" x1="193.7724" y1="250.4556" x2="102.4924" y2="-.3146" gradientTransform="translate(0 270.0008) scale(1 -1)" gradientUnits="userSpaceOnUse"><stop offset="0" stop-color="#00cf62"/><stop offset=".29" stop-color="#009c3e"/></linearGradient><linearGradient id="linear-gradient-4" x1="202.7901" y1="229.9504" x2="160.7401" y2="-8.5298" gradientTransform="translate(0 270.0008) scale(1 -1)" gradientUnits="userSpaceOnUse"><stop offset="0" stop-color="#ffcb5c"/><stop offset=".2" stop-color="#dd9341"/></linearGradient></defs><g id="Components"><g id="_699dd90a-df81-45c1-9a5c-d4b0805a6d47_1"><g style="clip-path:url(#clippath);"><path d="M59.0496,3.3901C28.3596,3.3901,3.3897,28.3601,3.3897,59.0501v149.8996c0,30.69,24.9699,55.66,55.6599,55.66h149.9004c30.69,0,55.66-24.97,55.66-55.66V59.0501c0-30.69-24.97-55.66-55.66-55.66H59.0496Z" style="fill:#fff;"/><path d="M0,59.0505v149.9002c0,32.56,26.49,59.05,59.05,59.05h149.9c32.56,0,59.05-26.49,59.05-59.05V70.2605c-28.69-4.71-57.99-11.44-87.58-20.17C146.57,40.1105,112.26,26.6805,47.88,1.0705,20.65,6.3105,0,30.3105,0,59.0505Z" style="fill:#fff;"/><path d="M135.98,87.4705v-4.49h5.94v-4.3h-5.94v-5.47h-4.45v5.47h-5.97v4.3h5.97v4.48c-4.71.75-7.2,4.02-7.2,9.47,0,6.3602,3.24,9.7202,9.38,9.7202s9.45-3.36,9.45-9.7202c0-3.81-1.25-8.52-7.17-9.47l-.01.01ZM137.92,96.9405c0,3.7502-1.18,5.2102-4.22,5.2102s-4.15-1.46-4.15-5.2102,1.17-5.18,4.19-5.18,4.19,1.45,4.19,5.18h-.01Z" style="fill:#0e2c4c;"/><path d="M170.55,173.3007h-73.6496v6.7h73.6496v-6.7Z" style="fill:#0e2c4c;"/><path d="M170.55,186.0907h-73.6496v6.7h73.6496v-6.7Z" style="fill:#0e2c4c;"/><path d="M137.08,111.6107h-6.7v54.99h6.7v-54.99Z" style="fill:#0e2c4c;"/><path d="M123.18,166.5207h.22v-5.87h-.22c-13.29-.1-15.96-8.3-15.96-21.5s2.67-21.57,15.96-21.67h.22v-5.87h-.22c-8.89.05-15.02,2.6-18.72,7.8-3.12,4.38-4.5704,10.65-4.5704,19.74,0,13.48,2.7604,27.26,23.2804,27.37h.01Z" style="fill:#0e2c4c;"/><path d="M100.33,166.6007v-5.87h-.22c-13.2899-.1-15.9599-8.3-15.9599-21.5s2.67-21.57,15.9599-21.67h.22v-5.87h-.22c-20.5199.11-23.2799,13.98-23.2799,27.54s2.76,27.26,23.2799,27.37h.22Z" style="fill:#0e2c4c;"/><path d="M167.57,139.1507c0-13.56-2.76-27.43-23.28-27.54h-.22v5.87h.22c13.29.1,15.96,8.36,15.96,21.67s-2.67,21.4-15.96,21.5h-.22v5.87h.22c20.52-.11,23.28-13.9,23.28-27.37Z" style="fill:#0e2c4c;"/><path d="M167.35,111.6907h-.22v5.87h.22c13.29.1,15.96,8.37,15.96,21.67s-2.67,21.4-15.96,21.5h-.22v5.87h.22c20.52-.11,23.28-13.9,23.28-27.37s-2.76-27.43-23.28-27.54Z" style="fill:#0e2c4c;"/><path d="M208.95,268.0007H59.05c-32.56,0-59.05-26.49-59.05-59.05V59.0504C0,26.4904,26.49.0005,59.05.0005h149.9C241.51.0005,268,26.4904,268,59.0504v149.9003c0,32.56-26.49,59.05-59.05,59.05ZM59.05,3.3905C28.36,3.3905,3.39,28.3604,3.39,59.0504v149.9003c0,30.69,24.97,55.66,55.66,55.66h149.9c30.69,0,55.66-24.97,55.66-55.66V59.0504c0-30.69-24.97-55.6599-55.66-55.6599H59.05Z" style="fill:#e4eaeb;"/><path d="M264.61,69.6705v-10.62c0-30.69-24.97-55.66-55.66-55.66H59.0495c-1.61,0-3.2.08-4.78.22,60.2905,23.96,93.4405,36.83,126.1505,46.48,28.43,8.38,56.58,14.9,84.19,19.58Z" style="fill:#fff;"/><path d="M264.61,69.6705v-10.62c0-30.69-24.97-55.66-55.66-55.66H59.0495c-1.61,0-3.2.08-4.78.22,60.2905,23.96,93.4405,36.83,126.1505,46.48,28.43,8.38,56.58,14.9,84.19,19.58Z" style="fill:url(#linear-gradient); fill-opacity:.5;"/><path d="M202.85,26.3204c25.57,0,46.96,17.82,52.47,41.71.47.09.93.18,1.4.26v-2.68c0-29.75-24.12-53.87-53.87-53.87H74.7695c13.86,5.48,26.1605,10.3,37.3305,14.58h90.75Z" style="fill:url(#linear-gradient-2);"/><path d="M202.85,40.9005c19.52,0,36.6,10.38,46.05,25.92,2.14.41,4.28.82,6.42,1.21-5.52-23.89-26.9-41.71-52.47-41.71h-90.74c14.87,5.7,27.75,10.46,39.71,14.58h51.04-.01Z" style="fill:url(#linear-gradient-3);"/><path d="M202.85,40.9005h-51.04c9.98,3.44,19.31,6.45,28.61,9.19,23.06,6.8,45.93,12.37,68.48,16.73-9.45-15.54-26.54-25.92-46.05-25.92Z" style="fill:url(#linear-gradient-4);"/></g><path d="M756.098,45.18h-51.5v174.0897h52.74c63.29,0,92.08-24.24,92.08-88.29,0-58.1497-31.91-85.7997-93.32-85.7997ZM755.848,196.8897h-27.12V67.57h27.12c48.21,0,68.65,17.49,68.65,63.8297,0,49.14-20.96,65.49-68.65,65.49Z" style="fill:#0e2c4c;"/><path d="M673.585,45.18h-24.13v174.0897h24.13V45.18Z" style="fill:#0e2c4c;"/><path d="M395.68,45.18l-65.68,174.0897h24.88l16.92-46.76h71.41l17.17,46.76h25.23l-65.79-174.0897h-24.14ZM379.76,150.6297l27.62-76.3497,27.87,76.3497h-55.49Z" style="fill:#0e2c4c;"/><path d="M521.429,178.7897V45.18h-40.57v20.89h17.53v112.5297c0,25.76,12.05,42.67,41.66,42.67,3.01,0,6.02-.63,6.02-.63v-19.75s-3.0099.43-6.02.43c-16.31,0-18.61-10.48-18.61-22.53h-.01Z" style="fill:#0e2c4c;"/><path d="M588.051,61.3401h-23.14v35.82h-17.67v20.8896h17.67v60.56c0,25.76,12.15,42.66,41.76,42.66,3.01,0,6.02-.63,6.02-.63v-19.74s-3.03.42-6.02.42c-16.31,0-18.61-10.48-18.61-22.53v-60.75h26.3701v-20.8896h-26.3701v-35.81h-.0099Z" style="fill:#0e2c4c;"/></g></g></svg>